:SAMPLES-PER-SECOND 30
:FULLY-SPECIFIED
:DEGREES
784
root  11.3803 38.793 2.61503 50.9077 85.5706 52.0106
RightUpLeg  -7.83107 -8.83984 -4.41104
RightLeg  25.9161 0.509027 -0.000542742
RightFoot  -15.5326 -0.183552 -2.14901
RightToes  -4.65663e-010 0 -3.6325e-017
Spine  28.1793 -0.694787 10.7084
Spine1  8.74679 2.3629 -1.5013
HEad  -32.921 -5.35171 -7.68313
LeftShoulder1  0.166538 3.03543 -29.5697
LeftArm  5.15013 0.840298 -44.9647
LeftForeArm  24.3735 -35.8013 -6.6329
LeftHand  -0.024408 5.4248 3.38791
RightShoulder  -0.435507 -4.83283 25.8688
RightArm  -1.81172 22.7369 51.35
RightForeArm  14.9148 37.7952 7.77795
RightHand  -0.671078 7.26984 -6.49442
LeftUpLeg  -27.0219 2.86406 2.00495
LeftLeg  49.9514 -2.80637 -3.14878
LeftFoot  4.94663 0.650609 -4.76193
LeftToes  8.74931e-010 -1.05764e-010 1.2659e-011
785
root  12.1592 38.8641 2.70684 48.2294 85.4074 50.0861
RightUpLeg  -4.84356 -9.10303 -4.73918
RightLeg  24.2969 1.05683 0.149375
RightFoot  -16.1296 -0.193844 -2.02625
RightToes  -4.65663e-010 0 -3.6325e-017
Spine  25.8609 -0.206045 11.0498
Spine1  8.566 2.89456 -1.91671
HEad  -31.4503 -5.53198 -7.81067
LeftShoulder1  0.000480883 3.50229 -30.9428
LeftArm  7.01723 2.83268 -43.8074
LeftForeArm  23.1292 -32.9332 -5.95932
LeftHand  -0.0304345 5.21391 3.35391
RightShoulder  -0.465416 -4.94161 25.5063
RightArm  -1.84814 24.3857 51.4154
RightForeArm  14.911 39.1807 8.19597
RightHand  -0.703679 6.37478 -7.27764
LeftUpLeg  -27.0617 3.28577 1.59803
LeftLeg  49.7755 -3.59389 -4.11992
LeftFoot  3.93024 0.602217 -4.66947
LeftToes  8.74931e-010 -1.05764e-010 1.2659e-011
786
root  12.9005 38.9249 2.79675 51.876 85.4512 53.834
RightUpLeg  -2.63479 -9.82794 -5.15783
RightLeg  22.7857 1.62897 0.298316
RightFoot  -16.5642 -0.20638 -2.06742
RightToes  -4.65663e-010 0 -3.6325e-017
Spine  23.8353 0.064493 11.3972
Spine1  7.58355 3.221 -2.91555
HEad  -30.8776 -5.39772 -7.81259
LeftShoulder1  -0.0734973 3.69809 -31.7033
LeftArm  9.07984 5.03591 -42.4437
LeftForeArm  21.9908 -30.3759 -5.40157
LeftHand  -0.0270921 5.35003 2.24762
RightShoulder  -0.486367 -5.02236 25.1914
RightArm  -1.87298 25.5347 51.5524
RightForeArm  15.609 40.5995 8.59638
RightHand  -0.676166 5.64754 -7.4747
LeftUpLeg  -27.4874 3.36949 0.825339
LeftLeg  46.946 -3.86514 -4.01456
LeftFoot  2.56523 0.584651 -4.92697
LeftToes  8.74931e-010 -1.05764e-010 1.2659e-011
787
root  13.6615 38.9539 2.87468 55.5571 85.494 57.7809
RightUpLeg  -0.168116 -10.438 -5.6542
RightLeg  21.1837 2.08096 0.425447
RightFoot  -17.1174 -0.217272 -2.01553
RightToes  -4.65663e-010 0 -3.6325e-017
Spine  22.0034 0.294219 11.5396
Spine1  7.0683 3.54322 -4.18011
HEad  -30.7078 -4.97885 -7.54837
LeftShoulder1  -0.00707733 3.52272 -31.1938
LeftArm  9.84431 7.62158 -42.4049
LeftForeArm  21.6471 -27.6751 -4.7929
LeftHand  -0.0245936 5.67844 1.98064
RightShoulder  -0.55477 -5.2378 25.2219
RightArm  -1.22477 26.8845 51.623
RightForeArm  16.4019 41.7013 8.9018
RightHand  -0.579953 7.73461 -5.45434
LeftUpLeg  -27.0983 3.9468 0.0587557
LeftLeg  41.8821 -4.25996 -3.7145
LeftFoot  1.21159 0.623599 -5.73603
LeftToes  8.74931e-010 -1.05764e-010 1.2659e-011
788
root  14.4286 39.0076 2.95189 61.5767 85.5212 63.9403
RightUpLeg  2.43851 -10.9634 -6.26867
RightLeg  19.0567 2.33369 0.54792
RightFoot  -17.4484 -0.207485 -1.67571
RightToes  -4.65663e-010 0 -3.6325e-017
Spine  20.0383 0.487808 11.1054
Spine1  7.34459 3.62357 -4.96031
HEad  -30.5509 -4.38378 -7.42049
LeftShoulder1  -0.0854698 3.73072 -31.5824
LeftArm  11.9399 9.32583 -41.6328
LeftForeArm  19.5435 -25.094 -4.32708
LeftHand  -0.0250024 6.0061 1.07876
RightShoulder  -0.575854 -5.30453 25.2223
RightArm  0.280674 28.6022 51.4231
RightForeArm  15.4753 42.0153 9.07046
RightHand  -0.641128 8.28886 -5.80324
LeftUpLeg  -26.3081 4.53896 -0.856012
LeftLeg  35.1326 -4.2888 -2.89719
LeftFoot  0.656051 0.664448 -6.35419
LeftToes  8.74931e-010 -1.05764e-010 1.2659e-011
789
root  15.1945 38.9945 3.02556 64.8835 85.6944 66.8492
RightUpLeg  4.25701 -11.0091 -6.32069
RightLeg  17.2733 2.15113 0.504245
RightFoot  -17.7392 -0.209202 -1.59644
RightToes  -4.65663e-010 0 -3.6325e-017
Spine  18.2612 0.89372 10.722
Spine1  7.0381 3.8363 -5.46259
HEad  -30.5394 -4.87886 -7.17091
LeftShoulder1  -0.0922233 3.74665 -31.8551
LeftArm  12.6582 11.1495 -41.2236
LeftForeArm  18.2887 -22.4891 -4.17841
LeftHand  -0.0185925 6.60527 1.53674
RightShoulder  -0.553893 -5.25343 24.886
RightArm  1.56671 29.3026 51.1362
RightForeArm  15.8012 42.6184 9.25314
RightHand  -0.61244 8.17337 -5.60848
LeftUpLeg  -25.8306 5.73663 -1.7106
LeftLeg  27.7495 -3.96199 -1.93359
LeftFoot  0.6633 0.606349 -5.80397
LeftToes  8.74931e-010 -1.05764e-010 1.2659e-011
790
root  16.0155 38.9647 3.04672 65.1193 85.742 66.6124
RightUpLeg  6.11078 -10.969 -6.51551
RightLeg  15.3534 2.26072 0.539375
RightFoot  -18.0487 -0.196894 -1.28019
RightToes  -4.65663e-010 0 -3.6325e-017
Spine  16.6143 1.21608 10.4794
Spine1  6.82763 4.16883 -6.44737
HEad  -30.2192 -4.81466 -6.77333
LeftShoulder1  -0.138264 3.86764 -31.8891
LeftArm  10.5104 12.93 -40.8904
LeftForeArm  20.6176 -19.7876 -5.05814
LeftHand  -0.0235494 7.3007 0.897654
RightShoulder  -0.595572 -5.38152 24.9743
RightArm  3.71265 29.8512 50.4853
RightForeArm  15.4948 42.8077 9.33937
RightHand  -0.61454 7.45882 -5.89776
LeftUpLeg  -24.8951 6.78875 -2.61369
LeftLeg  19.9977 -3.50879 -1.05691
LeftFoot  0.792066 0.627692 -5.94494
LeftToes  8.74931e-010 -1.05764e-010 1.2659e-011
791
root  16.8932 38.9037 3.0339 65.0805 85.8041 66.1184
RightUpLeg  8.09373 -10.8829 -6.72213
RightLeg  13.3854 2.29 0.499063
RightFoot  -18.4873 -0.179887 -0.873449
RightToes  -4.65663e-010 0 -3.6325e-017
Spine  14.7836 1.49341 10.0219
Spine1  7.20434 4.45037 -7.25676
HEad  -30.3399 -4.54236 -6.53683
LeftShoulder1  -0.159342 3.9219 -31.9739
LeftArm  6.71767 14.6652 -40.5921
LeftForeArm  24.4078 -17.2337 -6.18911
LeftHand  -0.0380203 7.54295 0.182441
RightShoulder  -0.638539 -5.51111 25.0996
RightArm  6.23467 29.9847 49.9353
RightForeArm  15.3602 42.3777 9.20019
RightHand  -0.538491 7.63144 -5.1541
LeftUpLeg  -23.6783 7.02769 -3.21064
LeftLeg  12.8996 -2.14041 -0.538624
LeftFoot  1.44821 0.687801 -6.21412
LeftToes  8.74931e-010 -1.05764e-010 1.2659e-011
792
root  17.829 38.7656 2.98713 60.6198 85.882 61.7408
RightUpLeg  10.5099 -10.7744 -6.942
RightLeg  11.959 2.61659 0.38755
RightFoot  -19.0107 -0.176563 -0.721433
RightToes  -4.65663e-010 0 -3.6325e-017
Spine  13.8784 1.66954 9.53081
Spine1  7.22286 4.68975 -7.83864
HEad  -30.4335 -4.35616 -5.90639
LeftShoulder1  -0.187832 3.99212 -32.3534
LeftArm  4.88555 16.5171 -39.6913
LeftForeArm  27.0461 -15.6867 -6.85417
LeftHand  -0.0652799 7.82269 -1.02689
RightShoulder  -0.636319 -5.50761 25.0414
RightArm  9.04158 29.355 49.7161
RightForeArm  15.1084 41.4788 8.91688
RightHand  -0.454836 7.80583 -4.36112
LeftUpLeg  -22.027 5.48743 -2.59938
LeftLeg  8.22468 1.99003 -0.84565
LeftFoot  1.59808 0.628094 -5.62298
LeftToes  8.74931e-010 -1.05764e-010 1.2659e-011
793
root  18.8568 38.5279 2.89643 53.4914 85.7468 54.5753
RightUpLeg  12.477 -10.8853 -7.50912
RightLeg  11.4511 3.46591 0.452081
RightFoot  -20.2523 -0.147572 -0.135596
RightToes  -4.65663e-010 0 -3.6325e-017
Spine  12.389 1.81551 9.16457
Spine1  7.95141 5.02955 -8.80446
HEad  -30.9377 -3.90708 -5.27723
LeftShoulder1  -0.204057 4.03488 -32.275
LeftArm  3.47183 18.1663 -39.1067
LeftForeArm  29.0617 -14.639 -7.20581
LeftHand  -0.0896023 7.83772 -2.0797
RightShoulder  -0.634616 -5.49497 25.1558
RightArm  12.4253 28.496 50.1261
RightForeArm  14.1586 39.48 8.3368
RightHand  -0.457123 7.94669 -4.33869
LeftUpLeg  -21.0025 4.75166 -2.52324
LeftLeg  6.8919 4.78779 -1.04863
LeftFoot  1.69695 0.496918 -4.38123
LeftToes  8.74931e-010 -1.05764e-010 1.2659e-011
